<svg
  version="1.0"
  xmlns="http://www.w3.org/2000/svg"
  width="24"
  height="24"
  viewBox="0 0 196.000000 220.000000"
  preserveAspectRatio="xMidYMid meet"
>
    <g transform="translate(0.000000,220.000000) scale(0.100000,-0.100000)" stroke="none">
        <path
      d="M155 2171 c-22 -10 -57 -35 -77 -56 -70 -73 -68 -42 -68 -895 0 -853
        -2 -822 68 -895 73 -75 68 -75 510 -75 l393 0 -3 77 -3 76 -377 2 -377 1 -26
        24 -25 23 0 767 0 767 26 24 25 24 599 0 598 0 26 -24 26 -24 0 -464 0 -463
        80 0 80 0 0 463 c0 518 0 522 -68 592 -76 78 -40 75 -742 75 -584 0 -628 -2
        -665 -19z"
    />
        <path
      d="M590 1848 c-57 -30 -82 -65 -87 -125 -7 -68 23 -125 80 -155 l42 -22
        -41 -12 c-138 -41 -244 -162 -244 -281 l0 -33 320 0 320 0 0 25 c0 37 -29 115
        -61 161 -39 57 -93 95 -168 120 l-64 21 32 13 c40 16 77 60 92 108 23 77 -30
        170 -109 192 -52 14 -62 13 -112 -12z"
    />
        <path d="M1150 1625 l0 -75 75 0 75 0 0 75 0 75 -75 0 -75 0 0 -75z" />
        <path d="M1150 1300 l0 -80 75 0 75 0 0 80 0 80 -75 0 -75 0 0 -80z" />
        <path d="M340 978 l0 -78 480 0 480 0 0 78 0 78 -480 0 -480 -1 0 -77z" />
        <path
      d="M1468 650 l-3 -240 -150 -6 c-82 -3 -151 -7 -152 -8 -1 -1 85 -89
        192 -196 l195 -195 195 195 c129 128 190 197 182 201 -7 4 -75 7 -152 6 l-140
        -2 -3 243 -2 242 -80 0 -80 0 -2 -240z"
    />
        <path d="M340 650 l0 -80 480 0 480 0 0 80 0 80 -480 0 -480 0 0 -80z" />
    </g>
</svg>
